<?xml version="1.0" encoding="UTF-8"?>
<svg id="Layer_1" data-name="Layer 1" xmlns="http://www.w3.org/2000/svg" xmlns:xlink="http://www.w3.org/1999/xlink" viewBox="0 0 1189.17 518.68">
  <defs>
    <style>
      .cls-1 {
        fill: url(#linear-gradient-5);
      }

      .cls-2 {
        fill: url(#linear-gradient-4);
      }

      .cls-3 {
        fill: url(#linear-gradient-3);
      }

      .cls-4 {
        fill: url(#linear-gradient-2);
      }

      .cls-5 {
        fill: url(#linear-gradient);
      }

      .cls-6 {
        fill: #0ea5e9;
      }

      .cls-7 {
        fill: #f59e0b;
      }

      .cls-8 {
        fill: #0369a1;
      }
    </style>
    <linearGradient id="linear-gradient" x1="365.39" y1="6.69" x2="365.39" y2="267.23" gradientUnits="userSpaceOnUse">
      <stop offset="0" stop-color="#ce8429"/>
      <stop offset="1" stop-color="#b3762e"/>
    </linearGradient>
    <linearGradient id="linear-gradient-2" x1="201.01" y1="518.68" x2="201.01" y2="267.23" gradientUnits="userSpaceOnUse">
      <stop offset="0" stop-color="#cb852a"/>
      <stop offset="1" stop-color="#ab722a"/>
    </linearGradient>
    <linearGradient id="linear-gradient-3" x1="355.69" y1="518.68" x2="355.69" y2="413.36" gradientUnits="userSpaceOnUse">
      <stop offset="0" stop-color="#d98f27"/>
      <stop offset="1" stop-color="#ab722a"/>
    </linearGradient>
    <linearGradient id="linear-gradient-4" x1="381.4" y1="45.81" x2="526.28" y2="45.81" gradientUnits="userSpaceOnUse">
      <stop offset="0" stop-color="#f19d21"/>
      <stop offset=".38" stop-color="#ec9a23"/>
      <stop offset=".76" stop-color="#e0912c"/>
      <stop offset="1" stop-color="#d58a34"/>
    </linearGradient>
    <linearGradient id="linear-gradient-5" x1="510.36" y1="66.16" x2="510.36" y2="413.36" xlink:href="#linear-gradient-4"/>
  </defs>
  <g>
    <path class="cls-8" d="M556.28,266.39h68.64c15.57,0,20.9,1.05,29.5,6.28,12.7,7.53,17.42,20.09,17.42,46.87,0,20.3-2.46,30.76-9.01,38.92-4.3,5.44-12.7,9.63-21.31,10.88q-2.46.21-20.69.63l-5.94.21h-21.92v35.78h-36.67v-139.57ZM615.9,337.96c16.39,0,18.44-2.3,18.44-20.3,0-11.93-1.64-16.74-6.56-19.04-3.07-1.26-4.1-1.46-11.68-1.46h-23.15v40.8h22.95Z"/>
    <path class="cls-8" d="M714.66,381.9l-6.56,24.06h-38.11l40.98-139.57h55.52l41.59,139.57h-37.29l-7.17-24.06h-48.97ZM739.25,294.22l-16.8,60.68h34.01l-17.21-60.68Z"/>
    <path class="cls-8" d="M954.17,405.96h-62.08l-21.51-58.8c-2.87-8.16-5.94-16.32-8.81-24.27l-8.2-24.48h-1.64l.61,12.97c.82,19.04,1.02,22.18,1.02,38.71v55.87h-35.85v-139.57h61.67l21.72,58.8c2.87,7.95,5.74,15.69,8.81,23.65,2.66,7.95,5.33,15.9,7.99,23.65h1.43l-.41-12.56c-.82-18.41-1.02-21.13-1.02-37.67v-55.87h36.26v139.57Z"/>
    <path class="cls-8" d="M1012.97,322.26h58.19v25.74h-58.19v27.2h63.51v30.76h-100.19v-139.57h98.96v30.76h-62.29v25.11Z"/>
    <path class="cls-8" d="M1131.8,373.95h57.37v32.02h-94.04v-139.57h36.67v107.56Z"/>
  </g>
  <g>
    <path class="cls-6" d="M556.28,78.59h80.25c18.21,0,24.43,1.22,34.5,7.34,14.85,8.81,20.36,23.49,20.36,54.8,0,23.73-2.87,35.96-10.54,45.51-5.03,6.36-14.85,11.25-24.91,12.72q-2.87.24-24.19.73l-6.95.24h-25.63v41.84h-42.88V78.59ZM625.99,162.26c19.16,0,21.56-2.69,21.56-23.73,0-13.95-1.92-19.57-7.67-22.26-3.59-1.47-4.79-1.71-13.65-1.71h-27.07v47.71h26.83Z"/>
    <path class="cls-6" d="M750.8,241.78h-42.88V78.59h42.88v163.19Z"/>
    <path class="cls-7" d="M880.39,157.86l47.43,83.92h-49.35l-15.81-33.03-7.91-16.39-3.59-8.32-3.83-8.32h-.72l-3.83,8.32-3.83,8.32-7.91,16.39-15.81,33.03h-50.31l47.91-83.92-44.8-79.27h49.59l14.61,29.85,7.19,15.17,3.35,7.34,3.35,7.58h.72l3.35-7.58,3.59-7.34,7.19-15.17,14.61-29.85h49.59l-44.8,79.27Z"/>
    <path class="cls-6" d="M983.16,143.91h68.03v30.09h-68.03v31.81h74.26v35.96h-117.14V78.59h115.7v35.96h-72.82v29.36Z"/>
    <path class="cls-6" d="M1122.1,204.34h67.07v37.43h-109.95V78.59h42.88v125.75Z"/>
  </g>
  <g>
    <rect class="cls-6" width="72.82" height="72.82"/>
    <rect class="cls-8" x="164.3" width="72.82" height="72.82"/>
    <rect class="cls-6" x="246.45" width="72.82" height="72.82"/>
    <rect class="cls-7" x="82.15" y="82.15" width="72.82" height="72.82"/>
    <rect class="cls-8" x="246.45" y="82.15" width="72.82" height="72.82"/>
    <rect class="cls-8" y="164.3" width="72.82" height="72.82"/>
    <rect class="cls-6" x="82.15" y="164.3" width="72.82" height="72.82"/>
    <rect class="cls-8" x="164.3" y="164.3" width="72.82" height="72.82"/>
    <rect class="cls-6" x="246.45" y="164.3" width="72.82" height="72.82"/>
    <rect class="cls-6" y="246.45" width="72.82" height="72.82"/>
    <rect class="cls-8" x="82.15" y="246.45" width="72.82" height="72.82"/>
    <rect class="cls-8" y="328.6" width="72.82" height="72.82"/>
    <rect class="cls-6" x="82.15" y="328.6" width="72.82" height="72.82"/>
    <rect class="cls-6" y="410.75" width="72.82" height="72.82"/>
    <rect class="cls-8" x="82.15" y="410.75" width="72.82" height="72.82"/>
    <g>
      <path class="cls-7" d="M526.28,66.16c-48.2-19.78-96.4-39.57-144.59-59.35-.1-.04-.19-.08-.29-.12h0s0,0,0,0c0,10.6,0,21.2,0,31.81v228.73h-164.46v31.02h0v189.96c103.12-24.95,206.23-49.9,309.35-74.85V66.16M494.43,391.07c-81.88,19.83-163.77,39.66-245.65,59.48v-152.31h164.46v-31.02h0V51.58c27.06,11.12,54.13,22.24,81.19,33.36v306.14Z"/>
      <path class="cls-5" d="M381.4,267.23h-32.01V31.48c10.67-8.26,21.34-16.53,32.01-24.79v260.54Z"/>
      <path class="cls-4" d="M216.94,488.21c-10.62,10.16-21.23,20.32-31.85,30.48v-220.44c10.62-10.34,21.23-20.68,31.85-31.02v220.98Z"/>
      <path class="cls-3" d="M494.44,441.19l31.85-27.83c-103.12,24.95-206.23,49.9-309.35,74.85-10.62,10.16-21.23,20.32-31.85,30.48,103.12-25.83,206.23-51.66,309.35-77.49Z"/>
      <path class="cls-2" d="M526.28,66.15c-10.62,6.26-21.23,12.52-31.85,18.77-27.06-11.12-54.13-22.24-81.19-33.36-10.62-14.96-21.23-29.93-31.85-44.89,48.29,19.82,96.59,39.65,144.88,59.47h0Z"/>
      <path class="cls-1" d="M526.28,413.36V66.16c-10.62,6.26-21.23,12.52-31.85,18.77v306.14c10.62,7.43,21.23,14.86,31.85,22.29Z"/>
    </g>
  </g>
</svg>