<?xml version="1.0" encoding="UTF-8"?>
<svg id="Layer_1" data-name="Layer 1" xmlns="http://www.w3.org/2000/svg" xmlns:xlink="http://www.w3.org/1999/xlink" viewBox="0 0 526.19 518.61">
  <defs>
    <style>
      .cls-1 {
        fill: url(#linear-gradient-5);
      }

      .cls-2 {
        fill: url(#linear-gradient-4);
      }

      .cls-3 {
        fill: url(#linear-gradient-3);
      }

      .cls-4 {
        fill: url(#linear-gradient-2);
      }

      .cls-5 {
        fill: url(#linear-gradient);
      }

      .cls-6 {
        fill: #0ea5e9;
      }

      .cls-7 {
        fill: #f59e0b;
      }

      .cls-8 {
        fill: #0369a1;
      }
    </style>
    <linearGradient id="linear-gradient" x1="365.3" y1="6.61" x2="365.3" y2="267.15" gradientUnits="userSpaceOnUse">
      <stop offset="0" stop-color="#ce8429"/>
      <stop offset="1" stop-color="#b3762e"/>
    </linearGradient>
    <linearGradient id="linear-gradient-2" x1="200.92" y1="518.61" x2="200.92" y2="267.15" gradientUnits="userSpaceOnUse">
      <stop offset="0" stop-color="#cb852a"/>
      <stop offset="1" stop-color="#ab722a"/>
    </linearGradient>
    <linearGradient id="linear-gradient-3" x1="355.59" y1="518.61" x2="355.59" y2="413.29" gradientUnits="userSpaceOnUse">
      <stop offset="0" stop-color="#d98f27"/>
      <stop offset="1" stop-color="#ab722a"/>
    </linearGradient>
    <linearGradient id="linear-gradient-4" x1="381.3" y1="45.73" x2="526.19" y2="45.73" gradientUnits="userSpaceOnUse">
      <stop offset="0" stop-color="#f19d21"/>
      <stop offset=".38" stop-color="#ec9a23"/>
      <stop offset=".76" stop-color="#e0912c"/>
      <stop offset="1" stop-color="#d58a34"/>
    </linearGradient>
    <linearGradient id="linear-gradient-5" x1="510.26" y1="66.08" x2="510.26" y2="413.29" xlink:href="#linear-gradient-4"/>
  </defs>
  <rect class="cls-6" width="72.82" height="72.82"/>
  <rect class="cls-8" x="164.3" width="72.82" height="72.82"/>
  <rect class="cls-6" x="246.45" width="72.82" height="72.82"/>
  <rect class="cls-7" x="82.15" y="82.15" width="72.82" height="72.82"/>
  <rect class="cls-8" x="246.45" y="82.15" width="72.82" height="72.82"/>
  <rect class="cls-8" y="164.3" width="72.82" height="72.82"/>
  <rect class="cls-6" x="82.15" y="164.3" width="72.82" height="72.82"/>
  <rect class="cls-8" x="164.3" y="164.3" width="72.82" height="72.82"/>
  <rect class="cls-6" x="246.45" y="164.3" width="72.82" height="72.82"/>
  <rect class="cls-6" y="246.45" width="72.82" height="72.82"/>
  <rect class="cls-8" x="82.15" y="246.45" width="72.82" height="72.82"/>
  <rect class="cls-8" y="328.6" width="72.82" height="72.82"/>
  <rect class="cls-6" x="82.15" y="328.6" width="72.82" height="72.82"/>
  <rect class="cls-6" y="410.75" width="72.82" height="72.82"/>
  <rect class="cls-8" x="82.15" y="410.75" width="72.82" height="72.82"/>
  <g>
    <path class="cls-7" d="M526.19,66.08c-48.2-19.78-96.4-39.57-144.59-59.35-.1-.04-.19-.08-.29-.12h0s0,0,0,0c0,10.6,0,21.2,0,31.81v228.73h-164.46v31.02h0v189.96c103.12-24.95,206.23-49.9,309.35-74.85V66.08M494.34,391c-81.88,19.83-163.77,39.66-245.65,59.48v-152.31h164.46v-31.02h0V51.5c27.06,11.12,54.13,22.24,81.19,33.36v306.14Z"/>
    <path class="cls-5" d="M381.3,267.15h-32.01V31.41c10.67-8.26,21.34-16.53,32.01-24.79v260.54Z"/>
    <path class="cls-4" d="M216.84,488.13c-10.62,10.16-21.23,20.32-31.85,30.48v-220.44c10.62-10.34,21.23-20.68,31.85-31.02v220.98Z"/>
    <path class="cls-3" d="M494.34,441.12l31.85-27.83c-103.12,24.95-206.23,49.9-309.35,74.85-10.62,10.16-21.23,20.32-31.85,30.48,103.12-25.83,206.23-51.66,309.35-77.49Z"/>
    <path class="cls-2" d="M526.19,66.08c-10.62,6.26-21.23,12.52-31.85,18.77-27.06-11.12-54.13-22.24-81.19-33.36-10.62-14.96-21.23-29.93-31.85-44.89,48.29,19.82,96.59,39.65,144.88,59.47h0Z"/>
    <path class="cls-1" d="M526.19,413.29V66.08c-10.62,6.26-21.23,12.52-31.85,18.77v306.14c10.62,7.43,21.23,14.86,31.85,22.29Z"/>
  </g>
</svg>